<?xml version="1.0" encoding="UTF-8" standalone="no"?><!DOCTYPE svg PUBLIC "-//W3C//DTD SVG 1.1//EN" "http://www.w3.org/Graphics/SVG/1.1/DTD/svg11.dtd"><svg width="100%" height="100%" viewBox="0 0 6484 1438" version="1.1" xmlns="http://www.w3.org/2000/svg" xmlns:xlink="http://www.w3.org/1999/xlink" xml:space="preserve" xmlns:serif="http://www.serif.com/" style="fill-rule:evenodd;clip-rule:evenodd;stroke-linejoin:round;stroke-miterlimit:2;"><path d="M1666.95,475.665l-463.429,696.694l0,-0.065c-13.164,18.731 -33.925,30.65 -56.783,32.485l-6.942,-0c-20.696,0.065 -40.541,-8.187 -55.014,-22.858l-170.672,-223.057l81.544,-121.798l132.592,50.434c-0,0 430.458,-396.421 524.225,-478.09c9.674,-8.426 24.133,-8.242 33.59,0.427c0.003,0.003 0.006,0.005 0.009,0.008c1.343,1.231 2.519,2.583 3.523,4.027l0.03,-0.03l0.105,0.224c1.527,2.238 2.647,4.688 3.347,7.24c41.32,90.678 64.337,191.394 64.337,297.444c0,396.689 -322.061,718.75 -718.75,718.75c-136.458,0 -264.086,-38.11 -372.827,-104.267l83.181,-124.243c101.233,75.485 226.72,120.177 362.563,120.177c335.224,-0 607.384,-272.16 607.384,-607.384c-0,-87.581 -18.577,-170.857 -52.013,-246.118Zm-381.907,-336.09c-54.979,-16.381 -113.202,-25.176 -173.464,-25.176c-335.224,0 -607.384,272.16 -607.384,607.384c0,22.963 1.277,45.63 3.772,67.977l-188.031,-76.732c3.07,-394.051 323.942,-713.028 718.726,-713.028c125.433,0 243.405,32.2 346.072,88.768l-0.05,0.05c2.077,1.275 4.06,2.765 5.917,4.467c0.002,0.002 0.004,0.003 0.006,0.005c14.079,12.906 16.66,34.145 6.082,50.048c-117.721,176.976 -761.153,1144.28 -761.153,1144.28l0,-0.102c-20.612,29.328 -53.117,47.99 -88.906,50.862l-10.87,0c-32.405,0.103 -63.476,-12.818 -86.137,-35.789l-401.224,-524.373c0,0 -22.445,-30.461 -40.194,-54.55c-12.231,-16.599 -10.637,-39.614 3.764,-54.369c0.003,-0.002 0.005,-0.005 0.007,-0.007c11.944,-12.237 30.112,-16.014 45.944,-9.553c96.815,39.51 470.326,181.935 470.326,181.935l756.797,-702.092Zm3596.4,778.882c0,47.266 -11.718,83.594 -35.156,108.984c-23.437,25.391 -57.031,38.086 -100.781,38.086c-43.75,0 -77.344,-12.695 -100.781,-38.086c-23.438,-25.39 -35.157,-61.849 -35.157,-109.375c0,-47.526 11.752,-83.821 35.254,-108.886c23.503,-25.065 57.194,-37.598 101.074,-37.598c43.881,0 77.442,12.63 100.684,37.891c23.242,25.26 34.863,61.588 34.863,108.984Zm-310.937,63.867c-0,25.781 -9.278,46.094 -27.832,60.938c-18.555,14.843 -44.369,22.265 -77.442,22.265c-30.468,0 -57.422,-5.729 -80.859,-17.187l-0,-56.25c19.271,8.594 35.579,14.648 48.926,18.164c13.346,3.516 25.553,5.273 36.621,5.273c13.281,0 23.47,-2.539 30.566,-7.617c7.097,-5.078 10.645,-12.63 10.645,-22.656c-0,-5.599 -1.563,-10.58 -4.688,-14.942c-3.125,-4.361 -7.715,-8.561 -13.769,-12.597c-6.055,-4.037 -18.392,-10.482 -37.012,-19.336c-17.448,-8.203 -30.534,-16.081 -39.258,-23.633c-8.724,-7.552 -15.69,-16.341 -20.898,-26.367c-5.209,-10.026 -7.813,-21.745 -7.813,-35.156c0,-25.261 8.562,-45.118 25.684,-59.571c17.122,-14.453 40.788,-21.679 70.996,-21.679c14.844,-0 29.004,1.757 42.48,5.273c13.477,3.516 27.572,8.464 42.286,14.844l-19.532,47.07c-15.234,-6.25 -27.832,-10.612 -37.793,-13.086c-9.961,-2.474 -19.759,-3.711 -29.394,-3.711c-11.458,0 -20.248,2.67 -26.367,8.008c-6.12,5.339 -9.18,12.305 -9.18,20.899c-0,5.338 1.237,9.993 3.711,13.964c2.474,3.972 6.413,7.813 11.816,11.524c5.404,3.711 18.197,10.384 38.379,20.019c26.693,12.761 44.987,25.554 54.883,38.379c9.896,12.826 14.844,28.548 14.844,47.168Zm-1209.38,-63.867c-0,47.266 -11.719,83.594 -35.156,108.984c-23.438,25.391 -57.032,38.086 -100.782,38.086c-43.75,0 -77.343,-12.695 -100.781,-38.086c-23.437,-25.39 -35.156,-61.849 -35.156,-109.375c-0,-47.526 11.751,-83.821 35.254,-108.886c23.502,-25.065 57.194,-37.598 101.074,-37.598c43.88,0 77.441,12.63 100.684,37.891c23.242,25.26 34.863,61.588 34.863,108.984Zm-866.797,-142.383l-0,184.766c-0,21.094 -4.72,39.583 -14.16,55.469c-9.44,15.885 -23.08,28.059 -40.918,36.523c-17.839,8.464 -38.932,12.695 -63.281,12.695c-36.719,0 -65.235,-9.407 -85.547,-28.222c-20.313,-18.815 -30.469,-44.564 -30.469,-77.246l-0,-183.985l60.351,0l0,174.805c0,22.005 4.428,38.151 13.282,48.437c8.854,10.287 23.502,15.43 43.945,15.43c19.792,0 34.147,-5.176 43.066,-15.527c8.92,-10.352 13.379,-26.595 13.379,-48.731l0,-174.414l60.352,0Zm986.523,175.977l0,109.57l-60.547,0l0,-285.547l83.204,0c38.802,0 67.513,7.064 86.132,21.192c18.62,14.127 27.93,35.579 27.93,64.355c0,16.797 -4.622,31.738 -13.867,44.824c-9.245,13.086 -22.331,23.34 -39.258,30.762c42.969,64.193 70.964,105.664 83.984,124.414l-67.187,0l-68.164,-109.57l-32.227,-0Zm-806.445,109.57l-60.547,0l0,-235.156l-77.539,-0l0,-50.391l215.625,0l0,50.391l-77.539,-0l0,235.156Zm1009.96,0l-0,-285.547l60.547,0l-0,285.547l-60.547,0Zm2430.66,-109.57l0,109.57l-60.547,0l0,-285.547l83.203,0c38.802,0 67.513,7.064 86.133,21.192c18.62,14.127 27.93,35.579 27.93,64.355c-0,16.797 -4.623,31.738 -13.867,44.824c-9.245,13.086 -22.331,23.34 -39.258,30.762c42.969,64.193 70.963,105.664 83.984,124.414l-67.187,0l-68.164,-109.57l-32.227,-0Zm-161.719,109.57l-20.703,-67.969l-104.101,0l-20.704,67.969l-65.234,0l100.781,-286.719l74.024,0l101.172,286.719l-65.235,0Zm-2026.37,0l-60.547,0l0,-235.156l-77.539,-0l0,-50.391l215.625,0l0,50.391l-77.539,-0l0,235.156Zm1343.36,0l-60.546,0l-0,-235.156l-77.539,-0l-0,-50.391l215.625,0l-0,50.391l-77.54,-0l0,235.156Zm-270.117,0l-59.57,0l-0,-285.547l163.672,0l-0,49.61l-104.102,-0l0,73.632l96.875,0l0,49.414l-96.875,0l0,112.891Zm1482.81,0l-164.453,0l-0,-285.547l164.453,0l-0,49.61l-103.906,-0l-0,62.695l96.679,-0l0,49.609l-96.679,0l-0,73.633l103.906,0l-0,50Zm-3453.12,0l-60.352,0l0,-123.242l-113.086,-0l0,123.242l-60.547,0l0,-285.547l60.547,0l0,111.914l113.086,0l0,-111.914l60.352,0l-0,285.547Zm1107.42,-167.969l59.57,-117.578l65.234,0l-94.726,174.414l-0,111.133l-60.156,0l-0,-109.18l-94.727,-176.367l65.625,0l59.18,117.578Zm-1976.56,167.969l-20.703,-67.969l-104.102,0l-20.703,67.969l-65.234,0l100.781,-286.719l74.024,0l101.172,286.719l-65.235,0Zm3509.18,0l-68.945,0l-38.672,-150c-1.433,-5.338 -3.874,-16.374 -7.325,-33.105c-3.45,-16.732 -5.436,-27.963 -5.957,-33.692c-0.781,7.031 -2.734,18.327 -5.859,33.887c-3.125,15.56 -5.534,26.66 -7.227,33.301l-38.476,149.609l-68.75,0l-72.852,-285.547l59.571,0l36.523,155.86c6.38,28.776 11.003,53.711 13.867,74.804c0.782,-7.422 2.572,-18.912 5.371,-34.472c2.8,-15.56 5.437,-27.637 7.911,-36.231l41.601,-159.961l57.227,0l41.601,159.961c1.823,7.162 4.102,18.099 6.836,32.813c2.735,14.713 4.818,27.343 6.25,37.89c1.302,-10.156 3.386,-22.819 6.25,-37.988c2.865,-15.169 5.469,-27.441 7.813,-36.816l36.328,-155.86l59.57,0l-72.656,285.547Zm-996.875,-143.164c-0,31.901 6.055,55.925 18.164,72.07c12.109,16.146 30.208,24.219 54.297,24.219c48.307,0 72.461,-32.096 72.461,-96.289c-0,-64.323 -24.024,-96.484 -72.071,-96.484c-24.088,-0 -42.252,8.105 -54.492,24.316c-12.239,16.211 -18.359,40.267 -18.359,72.168Zm-1520.31,0c0,31.901 6.055,55.925 18.164,72.07c12.11,16.146 30.209,24.219 54.297,24.219c48.308,0 72.461,-32.096 72.461,-96.289c0,-64.323 -24.023,-96.484 -72.07,-96.484c-24.089,-0 -42.253,8.105 -54.492,24.316c-12.24,16.211 -18.36,40.267 -18.36,72.168Zm2765.43,24.414c-19.141,-61.588 -29.915,-96.419 -32.324,-104.492c-2.409,-8.073 -4.134,-14.453 -5.176,-19.141c-4.297,16.667 -16.602,57.878 -36.914,123.633l74.414,0Zm-3792.58,0c-19.141,-61.588 -29.915,-96.419 -32.324,-104.492c-2.409,-8.073 -4.134,-14.453 -5.176,-19.141c-4.297,16.667 -16.602,57.878 -36.914,123.633l74.414,0Zm1355.27,-40.039l19.532,0c19.14,0 33.268,-3.19 42.382,-9.57c9.115,-6.38 13.672,-16.407 13.672,-30.078c0,-13.542 -4.655,-23.177 -13.965,-28.907c-9.309,-5.729 -23.73,-8.593 -43.261,-8.593l-18.36,-0l0,77.148Zm2634.18,0l19.531,0c19.141,0 33.269,-3.19 42.383,-9.57c9.115,-6.38 13.672,-16.407 13.672,-30.078c-0,-13.542 -4.655,-23.177 -13.965,-28.907c-9.31,-5.729 -23.73,-8.593 -43.262,-8.593l-18.359,-0l0,77.148Zm-2764.45,-320.508c-0,25.781 -9.277,46.094 -27.832,60.938c-18.555,14.843 -44.369,22.265 -77.442,22.265c-30.468,0 -57.421,-5.729 -80.859,-17.187l0,-56.25c19.271,8.594 35.58,14.648 48.926,18.164c13.346,3.516 25.553,5.273 36.621,5.273c13.281,0 23.47,-2.539 30.566,-7.617c7.097,-5.078 10.645,-12.63 10.645,-22.656c-0,-5.599 -1.563,-10.58 -4.688,-14.942c-3.125,-4.361 -7.714,-8.561 -13.769,-12.597c-6.055,-4.037 -18.392,-10.482 -37.012,-19.336c-17.448,-8.203 -30.534,-16.081 -39.258,-23.633c-8.724,-7.552 -15.69,-16.341 -20.898,-26.367c-5.208,-10.026 -7.813,-21.745 -7.813,-35.156c0,-25.261 8.562,-45.118 25.684,-59.571c17.122,-14.453 40.788,-21.679 70.996,-21.679c14.844,-0 29.004,1.757 42.481,5.273c13.476,3.516 27.571,8.464 42.285,14.844l-19.532,47.07c-15.234,-6.25 -27.832,-10.612 -37.792,-13.086c-9.961,-2.474 -19.76,-3.711 -29.395,-3.711c-11.458,0 -20.247,2.67 -26.367,8.008c-6.12,5.339 -9.18,12.305 -9.18,20.899c0,5.338 1.237,9.993 3.711,13.964c2.474,3.972 6.413,7.813 11.816,11.524c5.404,3.711 18.197,10.384 38.379,20.019c26.693,12.761 44.987,25.554 54.883,38.379c9.896,12.826 14.844,28.548 14.844,47.168Zm970.117,-206.25l0,184.766c0,21.094 -4.72,39.583 -14.16,55.469c-9.44,15.885 -23.079,28.059 -40.918,36.523c-17.839,8.464 -38.932,12.695 -63.281,12.695c-36.719,0 -65.235,-9.407 -85.547,-28.222c-20.313,-18.815 -30.469,-44.564 -30.469,-77.246l0,-183.985l60.352,0l-0,174.805c-0,22.005 4.427,38.151 13.281,48.437c8.854,10.287 23.503,15.43 43.945,15.43c19.792,0 34.147,-5.176 43.067,-15.527c8.919,-10.352 13.379,-26.595 13.379,-48.731l-0,-174.414l60.351,0Zm-1870.7,0l-0,184.766c-0,21.094 -4.72,39.583 -14.16,55.469c-9.44,15.885 -23.08,28.059 -40.918,36.523c-17.839,8.464 -38.932,12.695 -63.281,12.695c-36.719,0 -65.235,-9.407 -85.547,-28.222c-20.313,-18.815 -30.469,-44.564 -30.469,-77.246l-0,-183.985l60.352,0l-0,174.805c-0,22.005 4.427,38.151 13.281,48.437c8.854,10.287 23.502,15.43 43.945,15.43c19.792,0 34.147,-5.176 43.067,-15.527c8.919,-10.352 13.378,-26.595 13.378,-48.731l0,-174.414l60.352,0Zm599.609,285.547l0,-285.547l60.547,0l0,285.547l-60.547,0Zm1637.11,0l-0,-285.547l60.547,0l-0,285.547l-60.547,0Zm-2590.62,0l-60.547,0l-0,-235.156l-77.539,-0l-0,-50.391l215.625,0l-0,50.391l-77.539,-0l-0,235.156Zm2531.45,-145.508c0,47.005 -13.379,83.008 -40.137,108.008c-26.757,25 -65.397,37.5 -115.918,37.5l-80.859,0l-0,-285.547l89.648,0c46.615,0 82.813,12.305 108.594,36.914c25.781,24.61 38.672,58.985 38.672,103.125Zm-640.43,145.508l-20.703,-67.969l-104.101,0l-20.703,67.969l-65.235,0l100.781,-286.719l74.024,0l101.172,286.719l-65.235,0Zm-350.781,0l-60.351,0l-0,-123.242l-113.086,-0l-0,123.242l-60.547,0l-0,-285.547l60.547,0l-0,111.914l113.086,0l-0,-111.914l60.351,0l0,285.547Zm-622.656,0l-68.75,0l-74.805,-120.312l-25.586,18.359l0,101.953l-60.547,0l0,-285.547l60.547,0l0,130.664l23.828,-33.593l77.344,-97.071l67.188,0l-99.61,126.367l100.391,159.18Zm-433.203,-109.57l-0,109.57l-60.547,0l-0,-285.547l83.203,0c38.802,0 67.513,7.064 86.133,21.192c18.62,14.127 27.929,35.579 27.929,64.355c0,16.797 -4.622,31.738 -13.867,44.824c-9.244,13.086 -22.33,23.34 -39.258,30.762c42.969,64.193 70.964,105.664 83.985,124.414l-67.188,0l-68.164,-109.57l-32.226,-0Zm2348.83,109.57l-60.547,0l-0,-235.156l-77.539,-0l-0,-50.391l215.625,0l-0,50.391l-77.539,-0l-0,235.156Zm-364.649,-143.945c0,-61.328 -27.083,-91.992 -81.25,-91.992l-32.226,-0l-0,185.937l25.976,0c58.334,0 87.5,-31.315 87.5,-93.945Zm-612.695,25.195c-19.141,-61.588 -29.915,-96.419 -32.324,-104.492c-2.409,-8.073 -4.134,-14.453 -5.176,-19.141c-4.297,16.667 -16.601,57.878 -36.914,123.633l74.414,0Zm-1371.48,-40.039l19.531,0c19.141,0 33.268,-3.19 42.383,-9.57c9.114,-6.38 13.672,-16.407 13.672,-30.078c-0,-13.542 -4.655,-23.177 -13.965,-28.907c-9.31,-5.729 -23.731,-8.593 -43.262,-8.593l-18.359,-0l-0,77.148Z" style="fill:#dc0d15;"/></svg>