<?xml version="1.0" encoding="UTF-8" standalone="no"?><!DOCTYPE svg PUBLIC "-//W3C//DTD SVG 1.1//EN" "http://www.w3.org/Graphics/SVG/1.1/DTD/svg11.dtd"><svg width="100%" height="100%" viewBox="0 0 4167 4167" version="1.1" xmlns="http://www.w3.org/2000/svg" xmlns:xlink="http://www.w3.org/1999/xlink" xml:space="preserve" xmlns:serif="http://www.serif.com/" style="fill-rule:evenodd;clip-rule:evenodd;stroke-linejoin:round;stroke-miterlimit:2;"><rect id="Artboard4" x="0" y="0" width="4166.67" height="4166.67" style="fill:none;"/><path d="M3687.22,1588.71l-942.968,1417.61l-0,-0.134c-26.786,38.114 -69.03,62.367 -115.539,66.099l-14.126,0c-42.113,0.134 -82.492,-16.658 -111.941,-46.509l-347.277,-453.869l165.923,-247.829l269.792,102.621c0,-0 875.881,-806.624 1066.67,-972.8c19.684,-17.144 49.105,-16.771 68.348,0.869c0.006,0.005 0.011,0.01 0.017,0.015c2.733,2.506 5.126,5.257 7.17,8.195l0.06,-0.06l0.213,0.455c3.107,4.553 5.387,9.539 6.811,14.732c84.076,184.507 130.911,389.441 130.911,605.227c0,807.168 -655.318,1462.49 -1462.49,1462.49c-277.66,0 -537.352,-77.544 -758.616,-212.158l169.254,-252.805c205.985,153.593 461.322,244.531 737.73,244.531c682.102,-0 1235.88,-553.781 1235.88,-1235.88c-0,-178.205 -37.799,-347.652 -105.834,-500.79Zm-777.09,-683.865c-111.869,-33.331 -230.341,-51.227 -352.959,-51.227c-682.102,0 -1235.88,553.78 -1235.88,1235.88c0,46.724 2.599,92.846 7.675,138.319l-382.599,-156.132c6.247,-801.802 659.145,-1450.84 1462.44,-1450.84c255.227,0 495.271,65.521 704.173,180.622l-0.102,0.101c4.228,2.595 8.262,5.626 12.041,9.09c0.004,0.004 0.008,0.007 0.011,0.011c28.649,26.261 33.901,69.476 12.377,101.835c-239.535,360.104 -1548.77,2328.33 -1548.77,2328.33l-0,-0.208c-41.94,59.676 -108.082,97.649 -180.904,103.493l-22.117,-0c-65.936,0.209 -129.159,-26.082 -175.268,-72.822l-816.396,-1066.97c0,-0 -45.669,-61.981 -81.786,-110.996c-24.886,-33.775 -21.644,-80.606 7.66,-110.629c0.005,-0.005 0.009,-0.009 0.014,-0.014c24.303,-24.899 61.271,-32.586 93.485,-19.439c196.995,80.393 957.001,370.195 957.001,370.195l1539.9,-1428.59Z" style="fill:#fff;"/></svg>